<svg width="24" height="24" viewBox="0 0 24 24" fill="none" xmlns="http://www.w3.org/2000/svg">
<g clip-path="url(#clip0_319_482)">
<path d="M3.73125 21.0093C3.73239 21.1413 3.76836 21.2707 3.83553 21.3844C3.9027 21.498 3.99868 21.592 4.11378 21.6566C4.22888 21.7213 4.35901 21.7545 4.49102 21.7528C4.62304 21.751 4.75226 21.7145 4.86562 21.6468L20.5969 12.6374C20.7126 12.576 20.8094 12.4842 20.8769 12.3719C20.9444 12.2595 20.9801 12.131 20.9801 11.9999C20.9801 11.8689 20.9444 11.7403 20.8769 11.628C20.8094 11.5157 20.7126 11.4239 20.5969 11.3624L4.86562 2.35307C4.75226 2.2854 4.62304 2.24886 4.49102 2.24713C4.35901 2.24541 4.22888 2.27856 4.11378 2.34324C3.99868 2.40793 3.9027 2.50184 3.83553 2.61551C3.76836 2.72917 3.73239 2.85855 3.73125 2.99057V21.0093Z" stroke="white" stroke-width="1.7" stroke-linecap="round" stroke-linejoin="round"/>
<path d="M3.95625 2.4563L16.4906 14.9907" stroke="white" stroke-width="1.7" stroke-linecap="round" stroke-linejoin="round"/>
<path d="M3.95625 21.5437L16.4906 9.00928" stroke="white" stroke-width="1.7" stroke-linecap="round" stroke-linejoin="round"/>
</g>
<defs>
<clipPath id="clip0_319_482">
<rect width="24" height="24" fill="white"/>
</clipPath>
</defs>
</svg>
