<svg width="186" height="221" viewBox="0 0 186 221" fill="none" xmlns="http://www.w3.org/2000/svg">
<g clip-path="url(#clip0_1426_10698)">
<rect width="186" height="221" fill="#F2F2F2"/>
<path d="M124.728 85.6926C122.89 94.8875 121.596 105.034 118.037 111.956C112.958 121.835 101.84 127.922 92.8141 127.922C83.2196 127.922 72.588 121.372 67.5932 110.413C64.5978 103.838 62.3691 87.5312 61.5354 79.0387C59.1434 54.7131 68.6228 46.039 92.8141 45.5229C119.618 44.9532 129.36 62.5176 124.728 85.6926Z" fill="#003087"/>
<path d="M63.4766 76.0796C59.7031 74.02 56.2704 74.3625 56.9567 78.8258C57.6432 83.2891 58.6728 95.3059 61.0754 97.3655C63.4766 99.4251 65.8785 100.112 67.252 97.708C68.6249 95.3059 63.4766 76.0796 63.4766 76.0796Z" fill="#003087"/>
<path d="M122.985 76.0796C126.76 74.02 130.192 74.3625 129.507 78.8258C128.819 83.2891 127.792 95.3059 125.388 97.3655C122.985 99.4251 120.584 100.112 119.212 97.708C117.838 95.3059 122.985 76.0796 122.985 76.0796Z" fill="#003087"/>
<path d="M108.391 43.5346C107.1 38.3722 109.043 36.0679 98.9292 33.639C88.1781 31.0554 80.0068 31.0554 69.6851 39.2323C61.5644 45.6653 58.0744 51.71 58.5045 63.3291C58.9345 74.9466 60.2249 80.109 60.2249 80.109L67.1058 83.9805C67.1058 83.9805 67.966 62.4673 70.546 58.165C73.1265 53.8627 89.4684 55.1521 96.7787 53.4318C104.09 51.71 108.391 43.5346 108.391 43.5346Z" fill="#003087"/>
<path d="M104.522 43.9604C107.101 49.9846 115.701 56.438 118.713 61.6021C121.723 66.7661 120.433 85.6973 120.433 85.6973L126.024 80.9641C126.024 80.9641 131.614 61.6021 126.024 49.5537C120.433 37.5069 111.402 33.2046 105.812 36.2143C100.22 39.2272 104.522 43.9604 104.522 43.9604Z" fill="#003087"/>
<path d="M120.096 160.164L117.02 158.164C115.666 164.087 113.706 170.443 111.756 177.572C106.439 197.017 98.8292 216.143 97.3794 217.948H90.9206C89.4712 216.143 81.9187 198.094 76.601 178.65C74.5793 171.257 72.5982 164.709 71.0023 158.229L67.6337 160.164L64.9441 130.554L71.5341 126.428L91.0321 146.725L90.1429 147.235C91.6131 148.077 92.8017 148.556 93.461 148.502C94.6176 148.406 96.3356 147.526 98.3727 146.035L96.9492 145.11L114.626 126.428L121.441 130.287L120.096 160.164ZM168.222 148.26C166.75 146.152 164.096 146.152 164.096 146.152L123.427 129.915L113.901 124.306C113.596 119.279 113.636 113.788 114.606 109.38C116.766 99.565 71.0263 108.351 71.0263 108.351C71.5311 113.07 71.7035 118.948 71.5063 124.566L62.4202 129.915L21.7489 147.228C21.7489 147.228 19.0968 147.228 17.6229 149.34C16.149 151.45 6.44716 182.07 4.67871 220.961H180.629C178.86 182.07 169.696 150.374 168.222 148.26Z" fill="#003087"/>
<path d="M95.8519 143.118H91.8715L86.5557 148.435C86.5557 148.435 89.8011 149.493 90.4376 156.819C92.5031 156.958 93.1962 156.975 93.8617 156.953C94.5278 156.975 95.221 156.958 97.2852 156.819C97.923 149.493 101.734 148.255 101.734 148.255L95.8519 143.118Z" fill="#003087"/>
<path d="M97.0114 155.859L94.5392 154.759V154.264L93.8614 154.511L93.1836 154.264V154.759L90.7097 155.859C87.6134 158.686 87.67 169.44 87.67 172.279V221H100.051V172.279C100.051 169.44 100.11 158.686 97.0114 155.859Z" fill="#003087"/>
<path d="M95.8516 143.12L117.137 158.148L96.3305 145.093L95.8516 143.12Z" fill="#003087"/>
<path d="M91.8707 143.118L71.8027 157.607L91.8467 145.09L91.8707 143.118Z" fill="#003087"/>
</g>
<defs>
<clipPath id="clip0_1426_10698">
<rect width="186" height="221" fill="white"/>
</clipPath>
</defs>
</svg>
