<svg width="20" height="20" viewBox="0 0 20 20" fill="none" xmlns="http://www.w3.org/2000/svg">
<g clip-path="url(#clip0_319_328)">
<path d="M9.55469 5.57818L11.1016 4.0313C11.7565 3.43437 12.6162 3.11274 13.5022 3.13325C14.3881 3.15376 15.232 3.51483 15.8586 4.14143C16.4852 4.76804 16.8463 5.61198 16.8668 6.4979C16.8873 7.38381 16.5657 8.24356 15.9687 8.89849L13.7578 11.1016C13.4392 11.4215 13.0605 11.6752 12.6436 11.8484C12.2266 12.0216 11.7796 12.1107 11.3281 12.1107C10.8767 12.1107 10.4296 12.0216 10.0127 11.8484C9.59573 11.6752 9.21708 11.4215 8.89844 11.1016" stroke="#003086" stroke-width="1.5" stroke-linecap="round" stroke-linejoin="round"/>
<path d="M10.4453 14.4219L8.89843 15.9688C8.2435 16.5657 7.38375 16.8874 6.49783 16.8668C5.61192 16.8463 4.76798 16.4853 4.14137 15.8587C3.51477 15.2321 3.1537 14.3881 3.13319 13.5022C3.11268 12.6163 3.43431 11.7565 4.03124 11.1016L6.24218 8.89848C6.56082 8.57864 6.93947 8.32486 7.35642 8.1517C7.77336 7.97854 8.22039 7.8894 8.67187 7.8894C9.12334 7.8894 9.57037 7.97854 9.98731 8.1517C10.4043 8.32486 10.7829 8.57864 11.1016 8.89848" stroke="#003086" stroke-width="1.5" stroke-linecap="round" stroke-linejoin="round"/>
</g>
<defs>
<clipPath id="clip0_319_328">
<rect width="20" height="20" fill="white"/>
</clipPath>
</defs>
</svg>
