<svg width="18" height="18" viewBox="0 0 18 18" fill="none" xmlns="http://www.w3.org/2000/svg">
<path d="M9.00002 17.3334C4.39752 17.3334 0.666687 13.6026 0.666687 9.00008C0.666687 4.39758 4.39752 0.666748 9.00002 0.666748C13.6025 0.666748 17.3334 4.39758 17.3334 9.00008C17.3334 13.6026 13.6025 17.3334 9.00002 17.3334ZM6.40835 9.97508L6.41919 9.96925L7.14419 12.3609C7.23752 12.6201 7.36585 12.6667 7.52169 12.6451C7.67835 12.6242 7.76085 12.5401 7.86335 12.4417L8.85335 11.4851L10.9784 13.0584C11.3667 13.2726 11.6459 13.1617 11.7425 12.6984L13.1234 6.18008C13.2759 5.57341 13.0092 5.33008 12.5384 5.52341L4.42752 8.65675C3.87419 8.87842 3.87752 9.18841 4.32752 9.32591L6.40835 9.97591V9.97508Z" fill="white"/>
</svg>
