<svg width="18" height="14" viewBox="0 0 18 14" fill="none" xmlns="http://www.w3.org/2000/svg">
<path d="M16.9525 2.41492C17.3334 3.89992 17.3334 6.99992 17.3334 6.99992C17.3334 6.99992 17.3334 10.0999 16.9525 11.5849C16.7409 12.4058 16.1217 13.0516 15.3375 13.2699C13.9134 13.6666 9.00002 13.6666 9.00002 13.6666C9.00002 13.6666 4.08919 13.6666 2.66252 13.2699C1.87502 13.0483 1.25669 12.4033 1.04752 11.5849C0.666687 10.0999 0.666687 6.99992 0.666687 6.99992C0.666687 6.99992 0.666687 3.89992 1.04752 2.41492C1.25919 1.59409 1.87835 0.948252 2.66252 0.729918C4.08919 0.333252 9.00002 0.333252 9.00002 0.333252C9.00002 0.333252 13.9134 0.333252 15.3375 0.729918C16.125 0.951585 16.7434 1.59659 16.9525 2.41492ZM7.33335 9.91658L12.3334 6.99992L7.33335 4.08325V9.91658Z" fill="white"/>
</svg>
